<svg width="30" height="30" viewBox="0 0 50 50" fill="none" xmlns="http://www.w3.org/2000/svg">
<path d="M49 27.1067C48.5805 31.6459 46.8769 35.9717 44.0886 39.5781C41.3003 43.1845 37.5426 45.9221 33.2552 47.4708C28.9678 49.0194 24.3279 49.315 19.8787 48.3229C15.4294 47.3308 11.3546 45.0921 8.13125 41.8687C4.90787 38.6454 2.66915 34.5706 1.67707 30.1213C0.684982 25.672 0.980557 21.0322 2.52921 16.7448C4.07786 12.4574 6.81553 8.69964 10.4219 5.91134C14.0282 3.12304 18.3541 1.41948 22.8933 1C20.2357 4.59538 18.9569 9.0252 19.2894 13.4838C19.6219 17.9423 21.5436 22.1335 24.7051 25.2949C27.8665 28.4564 32.0576 30.3781 36.5162 30.7106C40.9748 31.0431 45.4046 29.7642 49 27.1067V27.1067Z" fill="#DBD8C6" stroke="#DBD8C6" stroke-width="2" stroke-linecap="round" stroke-linejoin="round"/>
</svg>
