<svg width="30" height="30" viewBox="0 0 62 62" fill="none" xmlns="http://www.w3.org/2000/svg">
<path d="M20.5 59.6996L27.5 52.4996C25 51.9996 22.7 50.9996 20.6 49.5996L20.5 59.6996Z" fill="#FFE62E"/>
<path d="M43.5 4.2998L36.5 11.4998C39 11.9998 41.3 12.9998 43.4 14.3998L43.5 4.2998" fill="#FFE62E"/>
<path d="M4.2998 43.5L14.3998 43.4C12.9998 41.3 11.9998 39 11.4998 36.5L4.2998 43.5Z" fill="#FFE62E"/>
<path d="M59.6996 20.5L49.5996 20.6C50.8996 22.7 51.8996 25 52.4996 27.5L59.6996 20.5Z" fill="#FFE62E"/>
<path d="M4.2998 20.5L11.4998 27.5C11.9998 25 12.9998 22.7 14.3998 20.6L4.2998 20.5" fill="#FFE62E"/>
<path d="M59.6996 43.5L52.4996 36.5C51.9996 39 50.9996 41.3 49.5996 43.4L59.6996 43.5Z" fill="#FFE62E"/>
<path d="M20.5 4.2998L20.6 14.3998C22.7 13.0998 25 12.0998 27.5 11.4998L20.5 4.2998" fill="#FFE62E"/>
<path d="M43.5 59.6996L43.4 49.5996C41.3 50.9996 39 51.9996 36.5 52.4996L43.5 59.6996Z" fill="#FFE62E"/>
<path d="M14.7998 44L10.7998 53.3L20.0998 49.3C17.9998 47.8 16.1998 46 14.7998 44Z" fill="#FFCE31"/>
<path d="M49.2 20.0002L53.2 10.7002L44 14.7002C46 16.2002 47.8 18.0002 49.2 20.0002Z" fill="#FFCE31"/>
<path d="M11.4 28.2998L2 31.9998L11.4 35.6998C11.1 34.4998 11 33.2998 11 31.9998C11 30.6998 11.1 29.4998 11.4 28.2998Z" fill="#FFCE31"/>
<path d="M52.5996 35.6998L61.9996 31.9998L52.5996 28.2998C52.7996 29.4998 52.9996 30.7998 52.9996 31.9998C52.9996 33.2998 52.8996 34.4998 52.5996 35.6998Z" fill="#FFCE31"/>
<path d="M20.0002 14.7998L10.7002 10.7998L14.7002 20.0998C16.2002 17.9998 18.0002 16.1998 20.0002 14.7998Z" fill="#FFCE31"/>
<path d="M44 49.1999L53.3 53.1999L49.3 43.8999C47.8 45.9999 46 47.7999 44 49.1999Z" fill="#FFCE31"/>
<path d="M35.6998 11.4L31.9998 2L28.2998 11.4C29.4998 11.2 30.7998 11 31.9998 11C33.1998 11 34.4998 11.1 35.6998 11.4Z" fill="#FFCE31"/>
<path d="M28.2998 52.6001L31.9998 62.0001L35.6998 52.6001C34.4998 52.9001 33.2998 53.0001 31.9998 53.0001C30.6998 53.0001 29.4998 52.9001 28.2998 52.6001Z" fill="#FFCE31"/>
<path d="M32 51C42.4934 51 51 42.4934 51 32C51 21.5066 42.4934 13 32 13C21.5066 13 13 21.5066 13 32C13 42.4934 21.5066 51 32 51Z" fill="#FFCE31"/>
</svg>
