<svg width="607" height="489" viewBox="0 0 607 489" fill="none" xmlns="http://www.w3.org/2000/svg">
<g clip-path="url(#clip0_386_1162)">
<path d="M33.573 156.429C33.573 176.782 38.5643 193.535 47.2226 207.887C50.0803 212.614 53.3242 217.114 56.9235 221.342C88.7527 258.94 147.929 279.519 201.413 312.852C359.288 411.243 376.389 253.581 369.259 156.429C366.383 117.228 350.576 81.3192 325.464 53.8251C320.19 48.0426 314.493 42.6333 308.417 37.6388C279.907 14.1898 243.075 0 201.413 0C129.935 0 68.8954 41.6376 44.694 100.312C37.3362 118.167 33.5621 137.212 33.573 156.429Z" fill="#6C63FF"/>
<path d="M165.653 35.2544L325.464 53.8249C320.19 48.0425 314.493 42.6331 308.417 37.6386L165.653 35.2544Z" fill="#D0CDE1"/>
<path d="M47.2229 207.887C50.0806 212.614 53.3246 217.113 56.9239 221.342L193.815 205.439L47.2229 207.887Z" fill="#D0CDE1"/>
<path d="M39.1099 116.446L271.111 87.3838L44.6944 100.312C42.5198 105.584 40.6554 110.971 39.1099 116.446Z" fill="#D0CDE1"/>
<path d="M353.521 41.668C353.521 42.0673 353.533 42.4608 353.569 42.8485C353.751 45.2518 354.485 47.5856 355.718 49.6802C356.952 51.7747 358.654 53.5771 360.699 54.9562C362.745 56.3353 365.084 57.2562 367.545 57.652C370.006 58.0478 372.528 57.9085 374.926 57.2441C377.324 56.5798 379.539 55.4072 381.408 53.8117C383.278 52.2162 384.756 50.2381 385.734 48.0213C386.712 45.8046 387.165 43.405 387.062 40.9975C386.958 38.59 386.3 36.2351 385.135 34.1044C384.774 33.4366 384.361 32.7963 383.9 32.1889C381.894 29.5012 379.083 27.4725 375.845 26.3764C372.608 25.2803 369.1 25.1694 365.795 26.0588C362.49 26.9482 359.548 28.7951 357.364 31.3503C355.18 33.9055 353.859 37.0461 353.581 40.3485C353.539 40.7826 353.521 41.2224 353.521 41.668Z" fill="#6C63FF"/>
<path d="M353.521 41.6677C353.521 42.067 353.533 42.4606 353.569 42.8483L378.688 39.9316L353.581 40.3483C353.539 40.7823 353.521 41.2221 353.521 41.6677Z" fill="#D0CDE1"/>
<path d="M359.513 49.833L382.75 52.5355C383.409 51.8254 384.003 51.0605 384.523 50.2497L359.513 49.833Z" fill="#D0CDE1"/>
<path d="M366.104 31.8936L385.135 34.1042C384.774 33.4365 384.361 32.7961 383.9 32.1887L366.104 31.8936Z" fill="#D0CDE1"/>
<path d="M123.591 333.406C123.785 333.759 123.987 334.101 124.207 334.427C125.534 336.468 127.315 338.197 129.421 339.489C131.527 340.781 133.905 341.602 136.382 341.894C138.858 342.186 141.371 341.941 143.737 341.176C146.103 340.412 148.263 339.147 150.059 337.474C151.854 335.802 153.241 333.763 154.119 331.507C154.996 329.252 155.341 326.835 155.129 324.434C154.917 322.034 154.153 319.709 152.893 317.629C151.633 315.549 149.908 313.767 147.845 312.412C147.202 311.986 146.527 311.607 145.825 311.279C142.748 309.814 139.28 309.295 135.888 309.792C132.496 310.29 129.344 311.78 126.857 314.062C124.369 316.343 122.666 319.307 121.977 322.553C121.288 325.799 121.647 329.171 123.004 332.214C123.178 332.616 123.375 333.013 123.591 333.406Z" fill="#6C63FF"/>
<path d="M123.592 333.406C123.785 333.759 123.987 334.101 124.207 334.427L144.979 320.479L123.004 332.214C123.178 332.616 123.375 333.013 123.592 333.406Z" fill="#D0CDE1"/>
<path d="M132.847 337.906L154.684 329.773C154.922 328.847 155.075 327.903 155.142 326.951L132.847 337.906Z" fill="#D0CDE1"/>
<path d="M129.962 319.076L147.845 312.412C147.202 311.986 146.527 311.607 145.825 311.279L129.962 319.076Z" fill="#D0CDE1"/>
<path d="M4.76379 54.0812C4.47512 54.367 4.19926 54.6568 3.94472 54.9586C2.33729 56.8015 1.17565 58.9674 0.544498 61.2986C-0.0866547 63.6298 -0.171459 66.0677 0.296249 68.4346C0.763954 70.8015 1.77244 73.0378 3.24818 74.9807C4.72391 76.9236 6.62975 78.5241 8.82691 79.6656C11.0241 80.8072 13.4572 81.4611 15.9491 81.5796C18.441 81.6982 20.9289 81.2784 23.2316 80.351C25.5343 79.4235 27.5939 78.0116 29.2602 76.2182C30.9265 74.4248 32.1576 72.295 32.8639 69.984C33.0884 69.2627 33.2559 68.5261 33.365 67.7803C33.8716 64.5033 33.3253 61.1551 31.8 58.1872C30.2747 55.2194 27.8437 52.7747 24.8348 51.1829C21.826 49.5912 18.3841 48.9289 14.9733 49.2855C11.5626 49.642 8.34709 51.0003 5.76059 53.177C5.41679 53.4594 5.08592 53.7622 4.76379 54.0812Z" fill="#6C63FF"/>
<path d="M4.7645 54.081C4.47583 54.3668 4.19997 54.6566 3.94543 54.9584L24.0361 69.8082L5.7613 53.1768C5.41749 53.4592 5.08664 53.7619 4.7645 54.081Z" fill="#D0CDE1"/>
<path d="M3.15118 63.9673L17.8327 81.5711C18.8183 81.5075 19.7961 81.3601 20.7549 81.1306L3.15118 63.9673Z" fill="#D0CDE1"/>
<path d="M20.8383 55.5688L32.8641 69.9841C33.0886 69.2628 33.2561 68.5261 33.3652 67.7804L20.8383 55.5688Z" fill="#D0CDE1"/>
<path d="M319.519 352.692C319.519 352.692 282.701 354.174 282.701 363.063C282.701 371.953 324.121 363.063 324.121 363.063L319.519 352.692Z" fill="#A0616A"/>
<path d="M374.746 489L443.779 484.555L446.848 448.996L462.188 480.11L529.688 471.22C528.153 414.919 503.608 360.1 502.074 352.692C500.54 345.283 496.874 314.673 496.874 314.673C490.17 300.939 455.04 299.65 427.503 300.894C416.089 301.398 405.965 302.346 399.721 303.028C395.594 303.472 393.155 303.798 393.155 303.798C382.156 314.747 375.068 329.667 370.712 346.335C355.003 406.385 374.746 489 374.746 489Z" fill="#2F2E41"/>
<path d="M451.449 145.266C430.268 145.266 413.097 128.683 413.097 108.226C413.097 87.7691 430.268 71.1855 451.449 71.1855C472.63 71.1855 489.801 87.7691 489.801 108.226C489.801 128.683 472.63 145.266 451.449 145.266Z" fill="#A0616A"/>
<path d="M477.528 117.116C477.528 117.116 488.267 163.046 505.141 176.38C522.016 189.715 439.176 176.38 439.176 176.38C439.176 176.38 457.585 146.748 443.779 133.413C429.972 120.079 477.528 117.116 477.528 117.116Z" fill="#A0616A"/>
<path d="M399.29 306.762L424.741 309.488L495.937 317.133C495.937 317.133 496.274 316.259 496.873 314.673C502.043 301.057 526.941 234.8 529.687 214.902C532.755 192.677 500.539 166.008 500.539 166.008C500.539 166.008 469.858 160.082 460.653 160.082C451.449 160.082 414.631 173.417 414.631 173.417L400.901 292.701L399.72 303.028L399.29 306.762Z" fill="#D0CDE1"/>
<path opacity="0.15" d="M370.711 346.336L422.302 317.133C422.302 317.133 423.207 314.288 424.741 309.488C425.508 307.088 426.444 304.184 427.502 300.895C433.454 282.434 443.441 251.972 451.449 229.718C463.722 195.641 403.893 290.464 403.893 290.464L400.901 292.701L399.72 303.028C395.594 303.473 393.154 303.799 393.154 303.799C382.155 314.748 375.068 329.668 370.711 346.336Z" fill="black"/>
<path d="M439.177 176.38C439.177 176.38 454.518 195.641 442.245 229.718C429.973 263.795 413.098 317.133 413.098 317.133L324.122 367.508L311.849 352.692L394.689 290.464C394.689 290.464 397.757 177.862 413.098 173.417C428.439 168.972 439.177 176.38 439.177 176.38Z" fill="#D0CDE1"/>
<path d="M515.113 306.021C515.113 306.021 493.636 348.988 484.432 344.543C475.227 340.098 507.443 295.65 507.443 295.65L515.113 306.021Z" fill="#A0616A"/>
<path d="M517.414 188.233L598.72 253.424C598.72 253.424 629.402 274.166 572.641 288.982C515.88 303.799 511.278 312.688 511.278 312.688C511.278 312.688 505.142 293.427 497.472 296.391L563.437 265.277L509.744 234.163L517.414 188.233Z" fill="#D0CDE1"/>
<path d="M550.092 138.627C545.825 136.586 536.402 132.467 528.375 127.504C528.938 111.36 526.88 96.7044 520.854 88.9359C517.472 81.5189 510.37 74.0933 504.807 68.2454C491.147 53.8847 460.94 45.8687 455.583 53.0438C415.062 53.8164 410.796 84.4923 410.796 84.4923C411.007 97.3232 424.815 97.7292 436.91 97.2616C435.827 106.021 438.714 115.123 447.072 119.159C463.056 126.878 467.852 136.912 459.86 143.859C451.868 150.806 437.482 169.331 456.663 173.962C475.844 178.593 478.241 187.856 472.647 191.715C467.052 195.575 485.434 184.769 485.434 184.769C485.434 184.769 488.631 203.294 505.414 198.662C506.918 198.247 508.422 197.184 509.9 195.593C514.432 200.403 518.476 203.247 521.524 203.263C538.978 203.352 536.885 184.681 536.885 184.681C536.885 184.681 557.603 190.301 551.138 188.041C544.674 185.781 544.397 176.237 561.574 166.783C578.752 157.329 559.728 143.236 550.092 138.627Z" fill="#2F2E41"/>
<path d="M335.935 187.025L336.214 186.99L335.535 189.482C334.893 192.959 333.961 196.38 332.748 199.712L312.839 272.806C312.204 275.139 310.877 277.242 309.022 278.857C307.167 280.472 304.863 281.529 302.395 281.898L261.794 287.964C259.169 288.356 256.482 287.952 254.105 286.806C251.728 285.66 249.778 283.83 248.524 281.568L209.94 211.964C208.734 210.036 207.633 208.049 206.639 206.01L205.329 203.647L205.534 203.621C201.443 194.276 199.643 184.146 200.273 174.018C200.903 163.891 203.945 154.041 209.164 145.237C214.383 136.432 221.637 128.91 230.36 123.258C239.083 117.605 249.04 113.975 259.455 112.649C269.869 111.324 280.46 112.339 290.401 115.616C300.343 118.893 309.367 124.344 316.769 131.542C324.171 138.741 329.752 147.493 333.077 157.117C336.401 166.741 337.379 176.976 335.935 187.025H335.935Z" fill="#3F3D56"/>
<path d="M259.302 292.74C260.017 292.74 260.731 292.687 261.437 292.581L303.877 286.239C306.572 285.837 309.088 284.683 311.114 282.92C313.14 281.156 314.589 278.859 315.282 276.312L336.092 199.908C337.364 196.41 338.341 192.819 339.015 189.169L339.541 185.827C340.957 175.149 339.784 164.299 336.114 154.134C332.444 143.968 326.377 134.766 318.394 127.254C310.41 119.741 300.727 114.124 290.11 110.845C279.493 107.566 268.233 106.715 257.217 108.36L257.401 109.504C268.296 107.882 279.434 108.742 289.924 112.016C300.415 115.289 309.968 120.885 317.822 128.356C325.676 135.828 331.613 144.969 335.16 155.051C338.707 165.132 339.765 175.874 338.25 186.421L337.846 188.921C337.177 192.54 336.208 196.1 334.947 199.569L314.123 276.017C313.489 278.347 312.164 280.447 310.311 282.06C308.459 283.673 306.159 284.728 303.694 285.096L261.254 291.437C258.633 291.826 255.951 291.421 253.578 290.277C251.205 289.133 249.258 287.307 248.004 285.05L246.947 285.596C248.146 287.754 249.928 289.557 252.103 290.815C254.279 292.073 256.766 292.738 259.302 292.74Z" fill="#D0CDE1"/>
<path d="M248.536 203.64L274.359 271.736L272.904 272.251L247.081 204.155L248.536 203.64Z" fill="#D0CDE1"/>
<path d="M290.7 197.339L292.248 197.404L288.952 269.854L287.404 269.788L290.7 197.339Z" fill="#D0CDE1"/>
<path d="M262.89 327.378L317.271 319.253C317.675 319.19 318.038 318.975 318.279 318.655C318.519 318.335 318.62 317.936 318.557 317.546C318.494 317.155 318.274 316.804 317.944 316.569C317.615 316.334 317.202 316.235 316.797 316.294L262.416 324.419C262.214 324.448 262.02 324.515 261.845 324.617C261.67 324.719 261.517 324.853 261.396 325.012C261.275 325.171 261.187 325.351 261.139 325.543C261.09 325.734 261.081 325.934 261.112 326.129C261.143 326.324 261.214 326.511 261.321 326.679C261.427 326.848 261.567 326.994 261.732 327.11C261.897 327.226 262.085 327.31 262.283 327.356C262.482 327.402 262.688 327.409 262.89 327.378Z" fill="#3F3D56"/>
<path d="M261.495 316.225L315.876 308.099C316.078 308.07 316.272 308.003 316.448 307.901C316.623 307.8 316.775 307.665 316.896 307.507C317.017 307.348 317.105 307.167 317.154 306.976C317.202 306.784 317.211 306.585 317.18 306.39C317.149 306.195 317.078 306.008 316.972 305.839C316.865 305.671 316.725 305.524 316.56 305.408C316.395 305.292 316.208 305.209 316.009 305.163C315.81 305.117 315.604 305.109 315.402 305.141L261.021 313.266C260.819 313.295 260.625 313.362 260.45 313.464C260.275 313.566 260.122 313.7 260.001 313.859C259.88 314.018 259.792 314.198 259.744 314.39C259.695 314.581 259.686 314.78 259.717 314.975C259.748 315.17 259.819 315.358 259.926 315.526C260.032 315.695 260.172 315.841 260.337 315.957C260.502 316.073 260.69 316.157 260.888 316.203C261.087 316.248 261.293 316.256 261.495 316.225Z" fill="#3F3D56"/>
<path d="M260.101 305.071L314.482 296.946C314.886 296.883 315.248 296.668 315.489 296.349C315.73 296.029 315.831 295.63 315.768 295.239C315.705 294.848 315.485 294.497 315.155 294.262C314.825 294.028 314.413 293.929 314.008 293.987L259.627 302.112C259.222 302.175 258.86 302.39 258.619 302.71C258.378 303.029 258.278 303.428 258.341 303.819C258.403 304.21 258.624 304.561 258.953 304.796C259.283 305.03 259.696 305.129 260.101 305.071H260.101Z" fill="#3F3D56"/>
<path d="M291.77 333.868C280.983 335.48 271.309 330.98 270.162 323.818L309.224 317.981C310.371 325.144 302.557 332.257 291.77 333.868Z" fill="#3F3D56"/>
<path d="M272.223 189.293C274.543 188.947 276.463 187.175 277.515 185.988C277.86 185.599 278.196 185.195 278.533 184.79C279.759 183.317 280.916 181.925 282.528 181.2C286.085 179.597 290.276 181.836 293.905 184.238L294.782 183.003C290.792 180.361 286.14 177.921 281.872 179.843C279.934 180.716 278.607 182.311 277.325 183.853C276.998 184.245 276.672 184.637 276.338 185.015C275.244 186.249 273.061 188.249 270.723 187.787C269.737 187.51 268.82 187.041 268.029 186.41C267.426 185.976 266.788 185.587 266.123 185.249C264.772 184.623 263.261 184.398 261.778 184.6C260.295 184.802 258.908 185.424 257.79 186.386C257.391 186.751 257.014 187.136 256.659 187.541C255.962 188.309 255.303 189.033 254.446 189.297C253.18 189.688 251.841 188.988 250.422 188.249C248.959 187.487 247.446 186.698 245.73 186.893C245.675 186.899 245.618 186.906 245.563 186.915C242.51 187.371 241.102 190.632 240.306 193.066L241.784 193.517C242.866 190.208 244.184 188.563 245.912 188.38C247.141 188.24 248.377 188.885 249.685 189.567C251.326 190.422 253.024 191.307 254.917 190.723C256.184 190.334 257.018 189.416 257.824 188.529C258.142 188.165 258.48 187.819 258.836 187.491C259.726 186.738 260.825 186.252 261.996 186.092C263.168 185.932 264.363 186.105 265.435 186.59C266.028 186.895 266.596 187.243 267.134 187.632C268.096 188.39 269.213 188.943 270.411 189.254C271.008 189.372 271.621 189.385 272.223 189.293Z" fill="#D0CDE1"/>
</g>
<defs>
<clipPath id="clip0_386_1162">
<rect width="607" height="489" fill="white" transform="matrix(-1 0 0 1 607 0)"/>
</clipPath>
</defs>
</svg>
